<svg xmlns="http://www.w3.org/2000/svg" xmlns:xlink="http://www.w3.org/1999/xlink" width="500" zoomAndPan="magnify" viewBox="0 0 375 374.999991" height="500" preserveAspectRatio="xMidYMid meet" version="1.0"><defs><g/><clipPath id="e719c7e99d"><path d="M 129 85.351562 L 245.910156 85.351562 L 245.910156 224.851562 L 129 224.851562 Z M 129 85.351562 " clip-rule="nonzero"/></clipPath></defs><g fill="#004aad" fill-opacity="1"><g transform="translate(73.694144, 252.532747)"><g><path d="M 1.59375 0 L 1.59375 -11.546875 L 2.921875 -11.546875 L 2.921875 -1.21875 L 8.015625 -1.21875 L 8.015625 0 Z M 1.59375 0 "/></g></g></g><g fill="#004aad" fill-opacity="1"><g transform="translate(87.60508, 252.532747)"><g><path d="M 2.515625 -11.546875 L 2.203125 -7.375 L 1.375 -7.375 L 1.046875 -11.546875 Z M 2.515625 -11.546875 "/></g></g></g><g fill="#004aad" fill-opacity="1"><g transform="translate(96.699198, 252.532747)"><g><path d="M 8.84375 0 L 7.40625 -3.671875 L 2.78125 -3.671875 L 1.359375 0 L 0 0 L 4.5625 -11.59375 L 5.6875 -11.59375 L 10.234375 0 Z M 6.984375 -4.875 L 5.640625 -8.453125 C 5.472656 -8.910156 5.296875 -9.46875 5.109375 -10.125 C 4.992188 -9.613281 4.828125 -9.054688 4.609375 -8.453125 L 3.25 -4.875 Z M 6.984375 -4.875 "/></g></g></g><g fill="#004aad" fill-opacity="1"><g transform="translate(112.450001, 252.532747)"><g><path d="M 5.140625 0 L 3.796875 0 L 3.796875 -10.359375 L 0.140625 -10.359375 L 0.140625 -11.546875 L 8.796875 -11.546875 L 8.796875 -10.359375 L 5.140625 -10.359375 Z M 5.140625 0 "/></g></g></g><g fill="#004aad" fill-opacity="1"><g transform="translate(126.913687, 252.532747)"><g><path d="M 8.015625 0 L 1.59375 0 L 1.59375 -11.546875 L 8.015625 -11.546875 L 8.015625 -10.359375 L 2.921875 -10.359375 L 2.921875 -6.640625 L 7.71875 -6.640625 L 7.71875 -5.453125 L 2.921875 -5.453125 L 2.921875 -1.203125 L 8.015625 -1.203125 Z M 8.015625 0 "/></g></g></g><g fill="#004aad" fill-opacity="1"><g transform="translate(141.424749, 252.532747)"><g><path d="M 1.59375 0 L 1.59375 -11.546875 L 2.921875 -11.546875 L 2.921875 -1.21875 L 8.015625 -1.21875 L 8.015625 0 Z M 1.59375 0 "/></g></g></g><g fill="#004aad" fill-opacity="1"><g transform="translate(155.335682, 252.532747)"><g><path d="M 1.59375 0 L 1.59375 -11.546875 L 2.921875 -11.546875 L 2.921875 0 Z M 1.59375 0 "/></g></g></g><g fill="#004aad" fill-opacity="1"><g transform="translate(165.361576, 252.532747)"><g><path d="M 8.015625 0 L 1.59375 0 L 1.59375 -11.546875 L 8.015625 -11.546875 L 8.015625 -10.359375 L 2.921875 -10.359375 L 2.921875 -6.640625 L 7.71875 -6.640625 L 7.71875 -5.453125 L 2.921875 -5.453125 L 2.921875 -1.203125 L 8.015625 -1.203125 Z M 8.015625 0 "/></g></g></g><g fill="#004aad" fill-opacity="1"><g transform="translate(179.872637, 252.532747)"><g><path d="M 2.921875 -4.796875 L 2.921875 0 L 1.59375 0 L 1.59375 -11.546875 L 4.75 -11.546875 C 6.164062 -11.546875 7.210938 -11.273438 7.890625 -10.734375 C 8.566406 -10.191406 8.90625 -9.375 8.90625 -8.28125 C 8.90625 -6.757812 8.128906 -5.726562 6.578125 -5.1875 L 9.71875 0 L 8.140625 0 L 5.34375 -4.796875 Z M 2.921875 -5.953125 L 4.765625 -5.953125 C 5.710938 -5.953125 6.40625 -6.140625 6.84375 -6.515625 C 7.289062 -6.890625 7.515625 -7.457031 7.515625 -8.21875 C 7.515625 -8.976562 7.289062 -9.523438 6.84375 -9.859375 C 6.394531 -10.203125 5.671875 -10.375 4.671875 -10.375 L 2.921875 -10.375 Z M 2.921875 -5.953125 "/></g></g></g><g fill="#004aad" fill-opacity="1"><g transform="translate(195.386545, 252.532747)"><g/></g></g><g fill="#004aad" fill-opacity="1"><g transform="translate(205.104478, 252.532747)"><g><path d="M 8.90625 -8.1875 C 8.90625 -7.007812 8.503906 -6.109375 7.703125 -5.484375 C 6.910156 -4.859375 5.769531 -4.546875 4.28125 -4.546875 L 2.921875 -4.546875 L 2.921875 0 L 1.59375 0 L 1.59375 -11.546875 L 4.578125 -11.546875 C 7.460938 -11.546875 8.90625 -10.425781 8.90625 -8.1875 Z M 2.921875 -5.6875 L 4.140625 -5.6875 C 5.328125 -5.6875 6.1875 -5.878906 6.71875 -6.265625 C 7.25 -6.648438 7.515625 -7.269531 7.515625 -8.125 C 7.515625 -8.882812 7.265625 -9.453125 6.765625 -9.828125 C 6.265625 -10.203125 5.488281 -10.390625 4.4375 -10.390625 L 2.921875 -10.390625 Z M 2.921875 -5.6875 "/></g></g></g><g fill="#004aad" fill-opacity="1"><g transform="translate(220.357803, 252.532747)"><g><path d="M 10.359375 0 L 9.015625 0 L 9.015625 -5.4375 L 2.921875 -5.4375 L 2.921875 0 L 1.59375 0 L 1.59375 -11.546875 L 2.921875 -11.546875 L 2.921875 -6.640625 L 9.015625 -6.640625 L 9.015625 -11.546875 L 10.359375 -11.546875 Z M 10.359375 0 "/></g></g></g><g fill="#004aad" fill-opacity="1"><g transform="translate(237.806334, 252.532747)"><g><path d="M 4.53125 -5.765625 L 7.609375 -11.546875 L 9.0625 -11.546875 L 5.203125 -4.484375 L 5.203125 0 L 3.84375 0 L 3.84375 -4.421875 L 0 -11.546875 L 1.46875 -11.546875 Z M 4.53125 -5.765625 "/></g></g></g><g fill="#004aad" fill-opacity="1"><g transform="translate(252.380567, 252.532747)"><g><path d="M 8.109375 -3.078125 C 8.109375 -2.054688 7.738281 -1.257812 7 -0.6875 C 6.257812 -0.125 5.257812 0.15625 4 0.15625 C 2.625 0.15625 1.570312 -0.0195312 0.84375 -0.375 L 0.84375 -1.671875 C 1.3125 -1.460938 1.820312 -1.300781 2.375 -1.1875 C 2.9375 -1.070312 3.492188 -1.015625 4.046875 -1.015625 C 4.941406 -1.015625 5.613281 -1.179688 6.0625 -1.515625 C 6.519531 -1.859375 6.75 -2.335938 6.75 -2.953125 C 6.75 -3.347656 6.664062 -3.671875 6.5 -3.921875 C 6.34375 -4.179688 6.070312 -4.414062 5.6875 -4.625 C 5.3125 -4.84375 4.742188 -5.09375 3.984375 -5.375 C 2.910156 -5.757812 2.140625 -6.210938 1.671875 -6.734375 C 1.210938 -7.265625 0.984375 -7.953125 0.984375 -8.796875 C 0.984375 -9.679688 1.316406 -10.382812 1.984375 -10.90625 C 2.660156 -11.4375 3.546875 -11.703125 4.640625 -11.703125 C 5.785156 -11.703125 6.84375 -11.492188 7.8125 -11.078125 L 7.390625 -9.90625 C 6.441406 -10.3125 5.515625 -10.515625 4.609375 -10.515625 C 3.898438 -10.515625 3.34375 -10.359375 2.9375 -10.046875 C 2.539062 -9.742188 2.34375 -9.320312 2.34375 -8.78125 C 2.34375 -8.382812 2.414062 -8.054688 2.5625 -7.796875 C 2.707031 -7.546875 2.957031 -7.3125 3.3125 -7.09375 C 3.664062 -6.882812 4.203125 -6.648438 4.921875 -6.390625 C 6.128906 -5.953125 6.960938 -5.484375 7.421875 -4.984375 C 7.878906 -4.492188 8.109375 -3.859375 8.109375 -3.078125 Z M 8.109375 -3.078125 "/></g></g></g><g fill="#004aad" fill-opacity="1"><g transform="translate(266.773194, 252.532747)"><g><path d="M 1.59375 0 L 1.59375 -11.546875 L 2.921875 -11.546875 L 2.921875 0 Z M 1.59375 0 "/></g></g></g><g fill="#004aad" fill-opacity="1"><g transform="translate(276.799087, 252.532747)"><g><path d="M 11.609375 -5.78125 C 11.609375 -3.9375 11.140625 -2.484375 10.203125 -1.421875 C 9.265625 -0.367188 7.96875 0.15625 6.3125 0.15625 C 4.613281 0.15625 3.300781 -0.363281 2.375 -1.40625 C 1.445312 -2.445312 0.984375 -3.910156 0.984375 -5.796875 C 0.984375 -7.679688 1.445312 -9.140625 2.375 -10.171875 C 3.300781 -11.203125 4.617188 -11.71875 6.328125 -11.71875 C 7.984375 -11.71875 9.273438 -11.191406 10.203125 -10.140625 C 11.140625 -9.085938 11.609375 -7.632812 11.609375 -5.78125 Z M 2.40625 -5.78125 C 2.40625 -4.21875 2.738281 -3.03125 3.40625 -2.21875 C 4.070312 -1.414062 5.039062 -1.015625 6.3125 -1.015625 C 7.59375 -1.015625 8.554688 -1.414062 9.203125 -2.21875 C 9.859375 -3.03125 10.1875 -4.21875 10.1875 -5.78125 C 10.1875 -7.34375 9.859375 -8.523438 9.203125 -9.328125 C 8.554688 -10.128906 7.597656 -10.53125 6.328125 -10.53125 C 5.046875 -10.53125 4.070312 -10.125 3.40625 -9.3125 C 2.738281 -8.507812 2.40625 -7.332031 2.40625 -5.78125 Z M 2.40625 -5.78125 "/></g></g></g><g clip-path="url(#e719c7e99d)"><path fill="#004aad" d="M 218.882812 143.949219 C 218.117188 143.949219 217.492188 144.578125 217.492188 145.34375 C 217.492188 146.109375 218.117188 146.734375 218.882812 146.734375 C 232.199219 146.734375 243.042969 157.664062 243.042969 171.085938 C 243.042969 184.507812 232.199219 195.433594 218.882812 195.433594 L 176.96875 195.433594 L 176.96875 146.734375 L 202.046875 146.734375 L 219.367188 183.710938 C 219.605469 184.214844 220.105469 184.519531 220.632812 184.519531 C 220.828125 184.519531 221.039062 184.476562 221.21875 184.394531 C 221.914062 184.074219 222.21875 183.238281 221.886719 182.542969 L 176.832031 86.367188 C 176.371094 85.394531 174.773438 85.394531 174.316406 86.367188 L 129.261719 182.527344 C 128.941406 183.226562 129.234375 184.058594 129.929688 184.378906 C 130.625 184.699219 131.445312 184.410156 131.777344 183.710938 L 175.566406 90.238281 L 200.726562 143.949219 L 175.566406 143.949219 C 174.800781 143.949219 174.175781 144.578125 174.175781 145.34375 L 174.175781 223.460938 C 174.175781 224.226562 174.800781 224.851562 175.566406 224.851562 C 176.332031 224.851562 176.957031 224.226562 176.957031 223.460938 L 176.957031 198.21875 L 218.867188 198.21875 C 233.730469 198.21875 245.808594 186.050781 245.808594 171.085938 C 245.808594 156.117188 233.742188 143.949219 218.882812 143.949219 Z M 218.882812 143.949219 " fill-opacity="1" fill-rule="nonzero"/></g></svg>